<?xml version="1.0" standalone="no"?>
<!DOCTYPE svg PUBLIC "-//W3C//DTD SVG 20010904//EN"
 "http://www.w3.org/TR/2001/REC-SVG-20010904/DTD/svg10.dtd">
<svg version="1.0" xmlns="http://www.w3.org/2000/svg"
 width="1380.000000pt" height="1380.000000pt" viewBox="0 0 1380.000000 1380.000000"
 preserveAspectRatio="xMidYMid meet">
<metadata>
Created by potrace 1.14, written by Peter Selinger 2001-2017
</metadata>
<g transform="translate(0.000000,1380.000000) scale(0.100000,-0.100000)"
fill="#000000" stroke="none">
<path d="M2070 9159 c-100 -11 -205 -35 -319 -71 -686 -218 -1071 -882 -1013
-1749 27 -406 127 -668 329 -866 122 -120 276 -183 445 -183 216 0 348 74 411
233 35 87 43 141 67 447 34 428 33 414 52 418 10 2 42 -4 72 -12 103 -30 177
-117 371 -431 177 -286 264 -383 407 -454 94 -48 191 -66 308 -57 181 13 328
76 451 193 42 40 81 73 86 73 6 0 17 -8 24 -17 29 -34 135 -94 213 -119 115
-38 313 -44 473 -15 139 24 232 66 398 179 99 67 133 97 195 172 41 50 86 110
100 133 14 24 45 76 69 117 25 41 65 119 91 173 l46 98 66 -69 c99 -105 162
-207 182 -294 l6 -28 -94 0 c-123 0 -187 -14 -238 -53 -71 -55 -101 -141 -78
-227 17 -65 109 -153 181 -174 60 -18 201 -21 268 -5 60 14 146 56 187 91 26
23 57 35 141 54 59 13 133 34 163 46 73 28 174 96 229 152 l44 45 61 -57 c111
-103 238 -152 398 -152 168 0 311 56 432 170 119 112 195 248 232 414 l18 83
117 25 118 24 6 -66 c22 -250 65 -364 174 -462 146 -132 346 -93 469 92 40 59
81 156 103 240 l12 45 13 -65 c36 -175 110 -283 215 -314 65 -20 97 -20 195
-1 127 24 237 84 353 190 l59 55 7 -27 c15 -63 55 -114 108 -139 60 -28 95
-30 162 -10 91 28 120 81 155 283 65 379 221 758 330 803 49 20 54 7 61 -154
5 -139 6 -146 40 -212 40 -81 93 -126 176 -150 75 -22 216 -15 298 14 32 12
62 19 65 14 4 -4 18 -38 33 -77 15 -38 50 -101 78 -138 119 -158 282 -231 514
-230 142 1 235 19 355 70 115 49 203 103 291 178 l73 63 61 -55 c111 -101 255
-153 425 -153 302 0 546 132 657 357 77 155 44 343 -59 343 -43 -1 -62 -18
-133 -117 -129 -183 -226 -245 -385 -247 -74 -1 -92 3 -143 27 -49 25 -118 90
-106 101 2 2 45 20 94 39 322 124 499 284 550 498 53 225 -35 438 -215 523
-54 25 -80 31 -157 34 -329 15 -606 -206 -713 -568 -27 -92 -39 -322 -21 -415
l12 -60 -76 -73 c-84 -79 -180 -141 -271 -174 -86 -31 -221 -31 -289 0 -132
60 -188 182 -188 407 0 130 16 212 59 296 67 133 187 197 250 134 26 -26 26
-26 19 -154 -7 -126 -7 -127 18 -157 24 -27 30 -29 99 -29 66 0 79 3 111 27
105 81 133 309 57 464 -63 128 -174 195 -326 195 -273 0 -519 -187 -638 -484
-23 -58 -39 -120 -62 -244 -7 -40 -100 -57 -133 -24 -37 37 -42 83 -25 266 17
184 14 247 -16 306 -31 60 -73 83 -157 88 -92 4 -163 -17 -257 -79 -169 -110
-334 -361 -428 -648 -18 -56 -36 -102 -39 -102 -16 0 13 292 56 570 20 129 19
147 -10 175 -29 30 -89 33 -180 10 -120 -31 -175 -94 -206 -235 -32 -151 -51
-343 -51 -543 l0 -188 -61 -77 c-130 -164 -212 -217 -279 -181 -62 33 -63 195
-3 644 26 198 46 425 39 460 -8 46 -35 67 -92 73 -58 5 -163 -20 -204 -50 -45
-31 -72 -104 -107 -278 -74 -376 -176 -658 -278 -771 -56 -62 -114 -50 -129
27 -17 92 12 501 51 731 8 45 17 111 21 147 6 63 6 66 -24 95 -27 28 -37 31
-91 31 -139 0 -220 -40 -265 -132 -27 -57 -58 -191 -80 -351 -8 -54 -16 -101
-19 -103 -6 -7 -159 -49 -208 -58 l-37 -7 -22 73 c-38 126 -96 224 -185 314
-125 127 -238 171 -414 161 -441 -23 -737 -434 -682 -947 l13 -122 -33 -36
c-54 -59 -101 -101 -145 -132 l-41 -29 -6 79 c-9 133 -75 244 -277 465 -114
124 -145 184 -137 264 3 31 22 104 41 163 63 189 47 215 -127 206 -122 -7
-206 -49 -245 -123 -8 -16 -43 -111 -77 -210 -116 -334 -165 -443 -287 -641
-53 -87 -85 -128 -135 -169 -131 -111 -245 -177 -375 -215 -138 -41 -285 -16
-365 62 -18 18 -33 35 -33 39 0 3 48 25 108 49 59 23 127 53 151 66 24 13 48
24 53 24 21 0 161 106 205 154 100 111 145 228 145 376 0 195 -74 323 -229
401 -59 30 -69 32 -170 31 -205 -2 -350 -60 -489 -197 -117 -116 -189 -251
-230 -430 -23 -103 -23 -290 0 -399 l17 -79 -38 -39 c-95 -97 -240 -129 -354
-76 -95 43 -158 120 -339 409 -70 112 -159 202 -240 243 -38 19 -87 37 -110
41 -23 4 -38 11 -33 15 4 4 42 22 83 39 86 36 232 127 304 192 115 102 218
263 266 414 34 108 39 295 11 405 -74 298 -293 484 -631 535 -102 16 -299 18
-420 4z m243 -374 c140 -29 264 -127 306 -241 119 -316 -62 -654 -409 -767
-108 -35 -150 -42 -150 -23 0 9 12 141 26 293 14 153 23 295 19 317 -15 98
-63 136 -172 136 -95 0 -169 -28 -218 -81 -59 -66 -64 -89 -96 -464 -11 -137
-22 -251 -24 -253 -2 -2 -28 -6 -58 -9 -115 -12 -184 -86 -173 -186 10 -95 59
-145 149 -154 39 -4 57 -10 57 -19 0 -8 -11 -135 -25 -282 -31 -337 -48 -392
-122 -392 -132 0 -264 229 -315 545 -20 126 -17 537 5 655 36 198 100 366 191
504 72 109 122 164 217 236 129 97 294 165 455 189 94 14 263 12 337 -4z
m10385 -313 c57 -37 71 -139 32 -230 -31 -73 -124 -157 -231 -210 -46 -22 -96
-44 -111 -48 l-28 -6 0 76 c0 99 24 215 60 286 31 61 105 136 142 144 55 12
64 13 88 8 14 -3 35 -12 48 -20z m-5752 -712 c32 -112 106 -216 203 -282 22
-15 23 -21 17 -68 -27 -204 -179 -340 -320 -286 -60 23 -128 98 -155 170 -31
84 -46 246 -32 353 21 167 106 288 218 311 l38 8 8 -75 c4 -42 14 -101 23
-131z m-2708 -11 c48 -17 73 -66 73 -143 0 -131 -77 -228 -246 -311 -143 -70
-135 -71 -135 28 0 203 65 352 179 410 60 30 82 33 129 16z"/>
<path d="M2677 4389 c-99 -23 -181 -94 -230 -197 -31 -65 -32 -71 -32 -202 0
-130 1 -137 31 -200 42 -90 84 -134 162 -172 62 -31 74 -33 167 -33 81 0 109
4 146 21 88 41 161 128 183 217 l6 27 -70 0 -70 0 -20 -39 c-32 -63 -81 -94
-155 -99 -83 -5 -125 10 -174 63 -55 59 -75 132 -68 239 6 89 22 137 64 186
55 66 166 89 248 51 48 -22 69 -44 90 -94 l15 -37 71 0 71 0 -7 33 c-17 78
-86 170 -156 208 -66 35 -188 48 -272 28z"/>
<path d="M3543 4385 c-132 -41 -214 -133 -248 -277 -49 -209 30 -412 192 -493
52 -27 68 -29 158 -30 94 0 105 2 167 33 112 55 177 150 199 291 28 183 -41
361 -170 438 -86 52 -206 67 -298 38z m223 -146 c23 -16 52 -48 69 -80 28 -51
30 -60 30 -169 0 -106 -2 -119 -28 -167 -39 -74 -90 -106 -177 -111 -53 -3
-75 0 -108 17 -82 42 -122 126 -122 256 0 139 38 222 122 264 61 31 159 26
214 -10z"/>
<path d="M8519 4387 c-187 -53 -291 -243 -260 -471 20 -145 86 -242 199 -298
62 -31 73 -33 167 -33 90 1 106 3 158 30 149 74 228 251 199 446 -30 205 -154
328 -340 336 -43 1 -97 -3 -123 -10z m223 -152 c65 -47 92 -109 97 -223 4
-109 -9 -166 -50 -222 -43 -59 -97 -83 -179 -78 -86 5 -134 34 -175 109 -28
51 -30 60 -30 169 0 101 3 120 23 159 48 90 105 123 204 118 56 -2 74 -8 110
-32z"/>
<path d="M10228 4386 c-151 -44 -226 -177 -169 -303 26 -57 87 -98 190 -129
171 -50 186 -56 214 -82 50 -48 26 -127 -49 -158 -43 -18 -125 -18 -167 0 -37
16 -72 51 -82 84 -6 20 -12 22 -77 22 l-70 0 7 -37 c10 -59 52 -122 102 -153
61 -39 133 -54 236 -48 108 6 186 41 231 106 42 59 48 150 16 217 -35 73 -101
110 -278 156 -104 27 -142 56 -142 108 0 20 7 47 16 60 55 77 227 63 268 -23
17 -36 17 -36 81 -36 61 0 65 1 65 23 -1 63 -71 150 -148 183 -50 22 -185 27
-244 10z"/>
<path d="M4210 3990 l0 -401 73 3 72 3 3 168 2 167 165 0 165 0 0 60 0 60
-165 0 -165 0 0 110 0 110 180 0 180 0 0 60 0 60 -255 0 -255 0 0 -400z"/>
<path d="M4915 4378 c-3 -7 -4 -186 -3 -398 l3 -385 73 -3 72 -3 0 171 0 170
165 0 165 0 0 60 0 60 -165 0 -165 0 0 110 0 110 183 2 182 3 0 55 0 55 -253
3 c-197 2 -254 0 -257 -10z"/>
<path d="M5620 3990 l0 -400 260 0 260 0 0 60 0 60 -190 0 -190 0 0 110 0 110
175 0 175 0 0 60 0 60 -175 0 -175 0 0 110 0 110 188 2 187 3 0 55 0 55 -257
3 -258 2 0 -400z"/>
<path d="M6340 3990 l0 -400 260 0 260 0 0 60 0 60 -187 2 -188 3 0 105 0 105
173 3 172 2 0 60 0 60 -172 2 -173 3 0 105 0 105 188 3 187 2 0 60 0 60 -260
0 -260 0 0 -400z"/>
<path d="M7400 3990 l0 -400 70 0 70 0 0 170 0 170 185 0 185 0 2 -167 3 -168
73 -3 72 -3 0 401 0 401 -72 -3 -73 -3 -3 -167 -2 -168 -185 0 -185 0 0 170 0
170 -70 0 -70 0 0 -400z"/>
<path d="M9184 4376 c-3 -8 -4 -142 -2 -298 3 -319 7 -338 82 -410 68 -66 116
-82 241 -83 94 0 117 3 160 23 60 28 109 73 138 127 21 38 22 54 25 348 l3
307 -70 0 -71 0 0 -274 c0 -170 -4 -285 -11 -303 -25 -67 -86 -105 -170 -105
-72 0 -128 29 -158 82 -20 36 -21 51 -21 319 l0 281 -70 0 c-52 0 -72 -4 -76
-14z"/>
<path d="M10820 3990 l0 -400 260 0 260 0 0 60 0 60 -190 0 -190 0 0 110 0
110 175 0 175 0 0 60 0 60 -175 0 -175 0 0 110 0 110 190 0 190 0 0 60 0 60
-260 0 -260 0 0 -400z"/>
</g>
</svg>
